<?xml version="1.0" encoding="iso-8859-1"?>
<!-- Generator: Adobe Illustrator 19.0.0, SVG Export Plug-In . SVG Version: 6.00 Build 0)  -->
<svg version="1.1" id="Layer_1" xmlns="http://www.w3.org/2000/svg" xmlns:xlink="http://www.w3.org/1999/xlink" x="0px" y="0px"
	 viewBox="0 0 361.836 361.836" style="enable-background:new 0 0 361.836 361.836;" xml:space="preserve">
<g>
	<path style="fill:#933EC5;" d="M321.836,100.049l40-0.065l-0.162-99.805l-99.806-0.162l-0.064,40l31.696,0.052l-46.958,46.959
		c-26.641-20.536-59.12-31.668-93.312-31.668c-40.927,0-79.408,15.938-108.35,44.88l28.284,28.284
		c21.383-21.383,49.823-33.163,80.066-33.156c30.243-0.007,58.683,11.773,80.066,33.156c21.39,21.39,33.163,49.823,33.163,80.073
		c0,30.236-11.781,58.676-33.163,80.059l28.284,28.284c28.942-28.942,44.88-67.423,44.88-108.35
		c0-34.175-11.121-66.639-31.638-93.273l46.963-46.963L321.836,100.049z"/>
	<path style="fill:#6D2C93;" d="M153.23,321.826c-62.438,0-113.236-50.799-113.229-113.229c0-30.25,11.773-58.683,33.163-80.073
		L44.88,100.24C15.938,129.182,0,167.662,0,208.59c0,84.499,68.738,153.237,153.23,153.23c40.927,0,79.408-15.938,108.35-44.88
		l-28.284-28.284C211.906,310.045,183.473,321.819,153.23,321.826z"/>
</g>
<g>
</g>
<g>
</g>
<g>
</g>
<g>
</g>
<g>
</g>
<g>
</g>
<g>
</g>
<g>
</g>
<g>
</g>
<g>
</g>
<g>
</g>
<g>
</g>
<g>
</g>
<g>
</g>
<g>
</g>
</svg>
